<svg xmlns="http://www.w3.org/2000/svg" viewBox="0 0 1150.11 364.97"><defs><style>.cls-1{fill:#aaa39e;}.cls-2{fill:#fff;}.cls-3{fill:#bca29f;}.cls-4{fill:#a88b75;}</style></defs><g id="Capa_2" data-name="Capa 2"><g id="Capa_1-2" data-name="Capa 1"><circle class="cls-1" cx="182.49" cy="182.49" r="182.49" transform="translate(-75.59 182.49) rotate(-45)"/><path class="cls-2" d="M192.59,208.14V141.89l-46.67,66.25Zm0,71.67v-39h-83.1V208.26l88.08-123.1h32.7v123h25.21V240.8H230.27v39Z"/><circle class="cls-3" cx="575.05" cy="182.49" r="182.49" transform="translate(39.39 460.07) rotate(-45)"/><path class="cls-2" d="M575.05,115.45a17.74,17.74,0,0,0-11.63,4.23q-5.1,4.23-7.92,15.15-3.71,14.16-3.7,47.72t3.32,46.1q3.32,12.54,8.38,16.7a18.14,18.14,0,0,0,23.18,0c3.42-2.83,6.05-7.88,7.93-15.16q3.69-14,3.7-47.58T595,136.45q-3.32-12.52-8.38-16.76A17.47,17.47,0,0,0,575.05,115.45Zm0-30.29q27.23,0,42.56,19.77,18.27,23.4,18.27,77.63t-18.4,77.76q-15.21,19.49-42.43,19.49T531,258.42Q514.23,237,514.22,182.16q0-53.83,18.41-77.49Q547.84,85.17,575.05,85.16Z"/><circle class="cls-4" cx="967.62" cy="182.49" r="182.49" transform="translate(154.37 737.66) rotate(-45)"/><path class="cls-2" d="M977.73,208.14V141.89l-46.68,66.25Zm0,71.67v-39h-83.1V208.26l88.08-123.1h32.69v123h25.22V240.8H1015.4v39Z"/></g></g></svg>