<svg xmlns="http://www.w3.org/2000/svg" viewBox="0 0 353.42 252.08"><defs><style>.cls-1{fill:#fff;}</style></defs><g id="Capa_2" data-name="Capa 2"><g id="Capa_1-2" data-name="Capa 1"><path class="cls-1" d="M48.16,194l19.49-56H58.92v-2.13H76.05V138H70.79l-27,77.4h-9.4L5.82,138H.67v-2.13H37.3V138H29.35Z"/><path class="cls-1" d="M94.65,187.94h3.24v-8.62q0-10.63-1.17-14.28t-4.54-3.64a6.49,6.49,0,0,0-3.64,1.06,3.31,3.31,0,0,0-1.62,2.91,11.18,11.18,0,0,0,.67,3.76h2.8a15.83,15.83,0,0,1,.9,5.65,7.34,7.34,0,0,1-2.8,5.72,10.47,10.47,0,0,1-7.06,2.4q-9.63,0-9.63-9.29,0-13.79,23.41-13.78,13.32,0,18.42,4.54t5.1,16.63v22.74q0,5.82,3.25,5.82,3.8,0,4.48-11.54l1.68.12q-.45,9.86-3.7,13.55t-10.64,3.7q-13.44,0-15.46-8.29A12,12,0,0,1,94,213.37c-1.94,1.34-4.78,2-8.51,2q-16.58,0-16.58-13.56,0-8,6.33-10.92T94.65,187.94Zm-3.87,21.29a2.32,2.32,0,0,0,2.35,1.68c1.16,0,2.24-1,3.25-2.86a17,17,0,0,0,1.51-7.9V189.74h-.78q-6.94,0-6.94,10.19v1.79C90.17,205.6,90.37,208.11,90.78,209.23Z"/><path class="cls-1" d="M128.81,130.26h27.44v82h6.27v2H129.26v-2h6.16v-80h-6.61Z"/><path class="cls-1" d="M202.73,214.27l-1.23-7.84q-3.81,9-15.46,9-9.63,0-14.95-6.95t-5.32-20.72q0-27.89,22.18-27.89,9.86,0,13,5.49v-33h-6.83v-2h28v82h5.49v2Zm-14.11-7.56q1.23,3.85,4.54,3.86a7.22,7.22,0,0,0,5.71-2.91c1.6-1.94,2.41-4.82,2.41-8.63V174.62a16.36,16.36,0,0,0-1.91-8.18,6.08,6.08,0,0,0-5.6-3.36q-3.69,0-5,4.93t-1.34,17.25v5.82Q187.39,202.84,188.62,206.71Z"/><path class="cls-1" d="M238.29,207.94q-7.22-7.45-7.22-20.72t8.12-20.33q8.12-7.06,20.67-7.06,25.42,0,24.41,25.54H252.69v4.37q0,11,2.8,16.57t9.74,5.6q13,0,17-13.89l2,.34a23.15,23.15,0,0,1-7.67,12.55Q271,215.38,260,215.39,245.51,215.39,238.29,207.94Zm14.51-24.81h11.54v-5.49q0-9.07-1.07-12.38A4.19,4.19,0,0,0,259,162q-3.19,0-4.71,3.53t-1.51,12.15Z"/><path class="cls-1" d="M339.27,161v2l-26.55,49.28h1.46q9.4,0,14.78-4.93t8.4-16h1.57l-1.79,23h-47v-1.68l27-49.62h-1.23q-11.31,0-15.74,3.69t-7.9,15.8h-1.45L292.22,161Z"/><path class="cls-1" d="M68.76,6.31h33.51V8.69h-6.9V91.76h6.9v2.39H64V91.76h6.9V13.34h-.5L51.57,94.15H35.89L13.8,13h-.5v78.8h6.9v2.39H3.14V91.76H10V8.69H3.14V6.31H37L53.71,70.93Z"/><path class="cls-1" d="M136.78,64.66h3.63V55q0-11.93-1.31-16T134,34.92a7.3,7.3,0,0,0-4.07,1.19,3.7,3.7,0,0,0-1.82,3.26,12.65,12.65,0,0,0,.75,4.21H132a17.78,17.78,0,0,1,1,6.33,8.19,8.19,0,0,1-3.14,6.4A11.67,11.67,0,0,1,122,59q-10.8,0-10.79-10.41,0-15.43,26.22-15.44,14.94,0,20.64,5.08t5.71,18.64V82.35c0,4.35,1.22,6.53,3.64,6.53q4.28,0,5-12.93l1.88.13q-.49,11-4.14,15.18T158.23,95.4q-15.06,0-17.31-9.28a13.46,13.46,0,0,1-4.9,7q-3.26,2.27-9.53,2.26-18.58,0-18.58-15.18,0-8.91,7.09-12.24T136.78,64.66ZM132.45,88.5a2.6,2.6,0,0,0,2.63,1.88c1.3,0,2.51-1.06,3.64-3.2s1.69-5.08,1.69-8.84V66.67h-.87q-7.78,0-7.78,11.41v2Q131.76,86.62,132.45,88.5Z"/><path class="cls-1" d="M217.46,37.93c-3.1,0-5.81,2-8.16,6a28,28,0,0,0-3.51,14.31V91.89h8.91v2.26H175.55V91.89h6.9V36.68h-6.9V34.42h30.24v12a16.89,16.89,0,0,1,16.82-13.3,13.77,13.77,0,0,1,9.59,3.33q3.7,3.32,3.71,9.41c0,4.06-.93,7.17-2.76,9.35s-4.67,3.26-8.47,3.26-6.61-1.26-8.41-3.77-2-6-.69-10.41h4.52Q223.24,37.93,217.46,37.93Z"/><path class="cls-1" d="M237.16,34.42H267.9V91.89h7v2.26H237.66V91.89h6.9V36.68h-7.4Zm9.91-8.91,7.91-24,5.9-1.26c2.59-.58,4.58-.27,6,1a6.17,6.17,0,0,1,2.07,4.89c0,2.05-1.22,4.16-3.64,6.34L248.45,26.39Z"/><path class="cls-1" d="M307.55,64.66h3.64V55q0-11.93-1.31-16t-5.09-4.08a7.3,7.3,0,0,0-4.07,1.19,3.7,3.7,0,0,0-1.82,3.26,12.65,12.65,0,0,0,.75,4.21h3.14a18,18,0,0,1,1,6.33,8.19,8.19,0,0,1-3.14,6.4,11.67,11.67,0,0,1-7.9,2.7Q282,59,282,48.6q0-15.43,26.22-15.44,14.94,0,20.64,5.08t5.71,18.64V82.35c0,4.35,1.22,6.53,3.64,6.53q4.26,0,5-12.93l1.88.13q-.49,11-4.14,15.18T329,95.4q-15.06,0-17.31-9.28a13.46,13.46,0,0,1-4.9,7c-2.18,1.51-5.35,2.26-9.54,2.26q-18.57,0-18.57-15.18,0-8.91,7.09-12.24T307.55,64.66ZM303.23,88.5a2.59,2.59,0,0,0,2.63,1.88c1.3,0,2.51-1.06,3.64-3.2s1.69-5.08,1.69-8.84V66.67h-.88q-7.77,0-7.77,11.41v2C302.54,84.44,302.76,87.24,303.23,88.5Z"/><rect class="cls-1" y="240.06" width="353.42" height="12.02"/></g></g></svg>